# xmcd
#
# Track frame offsets:
#	150
#	19763
#	35826
#	53606
#	68768
#	83002
#	101483
#	116264
#	131901
#	147942
#	162208
#	179679
#	198838
#	219906
#	235093
#
# Disc length: 3339 seconds
#
# Revision: 0
# Processed by: cddbd v1.5.2PL0 Copyright (c) Steve Scherf et al.
# Submitted via: EasyCDDAExtractor 2010.6.0.0
#
DISCID=c90d090f
DTITLE=AC/DC - Black Ice
DYEAR=1900
DGENRE=
TTITLE0=Rock N Roll Train
TTITLE1=Skies On Fire
TTITLE2=Big Jack
TTITLE3=Anything Goes
TTITLE4=War Machine
TTITLE5=Smash N Grab
TTITLE6=Spoilin' For A Fight
TTITLE7=Wheels
TTITLE8=Decibel
TTITLE9=Stormy May Day
TTITLE10=She Likes Rock N Roll
TTITLE11=Money Made
TTITLE12=Rock N Roll Dream
TTITLE13=Rocking All The Way
TTITLE14=Black Ice
EXTD=
EXTT0=
EXTT1=
EXTT2=
EXTT3=
EXTT4=
EXTT5=
EXTT6=
EXTT7=
EXTT8=
EXTT9=
EXTT10=
EXTT11=
EXTT12=
EXTT13=
EXTT14=
PLAYORDER=
